<?xml version="1.0" encoding="UTF-8" standalone="no"?><!DOCTYPE svg PUBLIC "-//W3C//DTD SVG 1.1//EN" "http://www.w3.org/Graphics/SVG/1.1/DTD/svg11.dtd"><svg width="100%" height="100%" viewBox="0 0 1080 1080" version="1.1" xmlns="http://www.w3.org/2000/svg" xmlns:xlink="http://www.w3.org/1999/xlink" xml:space="preserve" xmlns:serif="http://www.serif.com/" style="fill-rule:evenodd;clip-rule:evenodd;stroke-linejoin:round;stroke-miterlimit:2;"><path d="M540,20.017c286.987,-0 519.983,232.996 519.983,519.983c0,286.987 -232.996,519.983 -519.983,519.983c-286.987,0 -519.983,-232.996 -519.983,-519.983c-0,-286.987 232.996,-519.983 519.983,-519.983Zm0,35.783c267.237,-0 484.2,216.963 484.2,484.2c0,267.237 -216.963,484.2 -484.2,484.2c-267.237,0 -484.2,-216.963 -484.2,-484.2c-0,-267.237 216.963,-484.2 484.2,-484.2Z" style="fill:#ff3887;"/><g><g><path d="M242.212,684.31c-16.133,-2.609 -35.554,-12.261 -51.071,-30.013c-16.959,-19.402 -29.105,-48.469 -27.105,-88.613l0.03,-0.619c27.175,6.423 49.012,22.528 62.877,43.986c13.699,21.202 19.627,47.669 15.269,75.259" style="fill:#ff3887;fill-rule:nonzero;"/><path d="M249.474,544.357c2.312,-2.41 4.461,-4.948 6.437,-7.609c5.649,-7.607 9.724,-15.891 12.109,-24.615c2.402,-8.781 3.048,-17.957 1.912,-27.28c-1.139,-9.349 -4.267,-18.559 -9.296,-27.376c-7.306,-12.802 -17.295,-22.71 -29.693,-29.449c-12.481,-6.776 -26.363,-9.598 -41.224,-8.413c-9.233,0.7 -18.76,3.162 -28.32,7.32c-8.846,3.847 -16.934,7.852 -24.032,11.906l-54.75,31.234l5.299,9.29c3.921,6.873 10.279,11.801 17.909,13.89c7.626,2.082 15.611,1.075 22.475,-2.843l32.608,-18.608c5.925,-3.383 11.771,-6.267 17.372,-8.586c4.771,-1.975 10.187,-3.047 16.019,-3.171c5.925,-0.077 11.429,1.488 16.829,4.791c5.61,3.441 9.798,7.676 12.808,12.951c4.033,7.067 5.415,14.07 4.22,21.385c-1.25,7.662 -4.724,14.412 -10.561,20.581c-1.831,1.9 -4.043,3.817 -6.586,5.712c-2.822,2.102 -5.799,4.145 -8.856,6.077c-1.85,1.171 -3.705,2.297 -5.572,3.375c-1.269,0.733 -2.542,1.441 -3.832,2.139c-3.455,1.865 -6.562,3.586 -9.322,5.161l-18.593,10.588l147.25,62.236c17.718,7.689 38.302,6.559 55.07,-3.012l18.67,-10.652l-136.35,-57.022Z" style="fill:#ff3887;fill-rule:nonzero;"/></g><g><path d="M832.251,442.977c-0,0 -6.104,94.731 -45.497,124.939c-0,0 -84.462,-65.236 45.497,-124.939" style="fill:#ff3887;fill-rule:nonzero;"/><path d="M872.857,616.724c-15.265,8.816 -31.911,13.231 -48.467,13.626c-10.397,4.399 -36.744,-5.793 -36.744,-5.793c-22.384,-7.833 -42.177,-23.351 -54.882,-45.353c-14.099,-24.414 -16.922,-52.389 -10.121,-77.79c6.807,-25.398 23.231,-48.216 47.644,-62.313l85.891,-49.592c4.524,16.507 7.167,33.258 8.012,49.974c0.003,0.328 0.021,0.666 0.047,0.981c1.117,24.184 -1.552,48.273 -7.759,71.407c-0.677,2.526 -1.403,5.044 -2.16,7.544c-0.157,0.42 -0.287,0.853 -0.398,1.293l-0.039,0.123c-2.458,7.881 -6.214,15.284 -10.919,22.07c-10.26,14.779 -29.694,41.83 -39.22,48.907c0,0 16.079,12.694 114.632,-43.217c1.944,0.701 3.876,1.436 5.794,2.217c11.343,4.614 22.124,10.57 32.091,17.764l-83.402,48.152Zm37.109,-158.187c7,1.613 14.052,3.663 21.111,6.15c-1.785,9.527 -4.177,18.644 -7.159,27.286c-2.87,8.312 -6.289,16.216 -10.228,23.65c-8.492,-2.263 -17.173,-3.923 -25.977,-4.943c4.148,-17.986 6.419,-36.418 6.729,-54.993c5.134,0.711 10.305,1.657 15.524,2.85m85.44,104.652c-0.936,-1.586 -2.11,-2.934 -3.462,-4.032c-14.793,-13.895 -31.629,-25.116 -49.724,-33.337c3.811,-7.636 7.167,-15.65 10.051,-24.016c4.841,-14.005 8.329,-28.933 10.376,-44.578c0.134,-0.847 0.183,-1.71 0.166,-2.562l-0.005,-0.07l-0.01,-0.306l-0.001,-0.054l-0.018,-0.32l-0.008,-0.05l-0.03,-0.322l-0.007,-0.042c-0.178,-1.822 -0.701,-3.573 -1.5,-5.173l-0.011,-0.031l-0.159,-0.293l-0.162,-0.31l-0.202,-0.35l-0.192,-0.302l-0.17,-0.278l-0.021,-0.024c-0.987,-1.493 -2.239,-2.814 -3.731,-3.886l-0.033,-0.027l-0.264,-0.186l-0.039,-0.033l-0.264,-0.168l-0.047,-0.028l-0.264,-0.168l-0.058,-0.041c-0.729,-0.44 -1.501,-0.828 -2.306,-1.142c-12.217,-5.071 -24.464,-8.998 -36.621,-11.785c-7.858,-1.814 -15.696,-3.135 -23.497,-3.992c-2.101,-21.261 -6.825,-42.491 -14.273,-63.239c-2.818,-7.787 -11.404,-11.82 -19.198,-9.015c-0.852,0.308 -1.654,0.689 -2.408,1.118l-0.029,-0.05l-102.054,58.932c-31.611,18.254 -52.873,47.755 -61.667,80.594c-7.57,28.266 -5.91,59.002 6.334,87.164c4.17,8.869 9.145,17.573 15.063,26.084c18.271,24.682 44.061,41.483 72.323,49.049c32.838,8.799 69.021,5.137 100.632,-13.117l101.617,-58.68c7.237,-4.179 10.118,-13.734 5.873,-20.934" style="fill:#ff3887;fill-rule:nonzero;"/></g><path d="M459.817,504.22l-0.422,0.244c-10.105,5.769 -20.869,9.335 -31.995,10.605c-11.277,1.291 -22.406,0.531 -33.084,-2.252c-10.646,-2.776 -20.685,-7.554 -29.838,-14.219c-8.978,-6.532 -16.436,-14.934 -22.162,-24.97c-5.893,-10.327 -9.598,-21.364 -11.016,-32.809c-1.42,-11.479 -0.696,-22.714 2.149,-33.385c2.859,-10.701 7.773,-20.824 14.605,-30.085c6.636,-8.995 15.196,-16.551 25.44,-22.467l0.413,-0.238c10.28,-5.865 21.194,-9.462 32.436,-10.695c11.391,-1.247 22.622,-0.393 33.367,2.543c10.753,2.944 20.855,7.92 30.021,14.782c9.06,6.794 16.573,15.353 22.329,25.438c5.842,10.24 9.391,21.15 10.547,32.423c1.169,11.451 0.249,22.663 -2.733,33.328c-2.985,10.66 -8.001,20.667 -14.91,29.745c-6.749,8.87 -15.209,16.278 -25.147,22.012m38.677,-181.249c-14.177,-10.272 -29.717,-17.588 -46.186,-21.749c-16.439,-4.151 -33.575,-5.169 -50.937,-3.026c-17.455,2.163 -34.301,7.824 -50.075,16.82l-0.645,0.37c-15.69,9.06 -28.999,20.683 -39.555,34.542c-10.631,13.96 -18.369,29.318 -23,45.639c-4.652,16.379 -6.019,33.574 -4.066,51.112c1.965,17.618 7.591,34.663 16.72,50.662c8.98,15.736 20.836,28.91 35.233,39.152c14.199,10.108 29.725,17.292 46.14,21.351c16.362,4.052 33.396,5.046 50.623,2.954c17.37,-2.099 33.995,-7.63 49.415,-16.429l0.674,-0.386c15.484,-8.941 28.702,-20.437 39.287,-34.163c10.69,-13.855 18.515,-29.193 23.252,-45.589c4.734,-16.389 6.307,-33.52 4.675,-50.915c-1.656,-17.617 -7.087,-34.6 -16.147,-50.479c-9.161,-16.056 -21.072,-29.469 -35.408,-39.866" style="fill:#ff3887;fill-rule:nonzero;"/><path d="M568.42,583.2c1.086,-3.564 2.778,-6.776 5.168,-9.81c2.326,-2.946 5.176,-5.371 8.882,-7.511c0.001,-0.001 71.748,-40.936 71.748,-40.936l-6.169,-10.816c-4.392,-7.695 -11.517,-13.221 -20.067,-15.558c-8.549,-2.338 -17.494,-1.204 -25.19,3.188l-43.348,24.737c-8.906,5.142 -16.506,11.606 -22.588,19.222c-6.16,7.711 -10.742,16.278 -13.616,25.459c-2.928,9.342 -3.902,19.13 -2.895,29.091c1.007,10.033 4.246,19.904 9.627,29.336c5.851,10.251 12.665,18.128 20.261,23.413c7.559,5.26 15.803,8.69 24.514,10.194c8.123,1.397 16.776,1.52 25.706,0.369c8.053,-1.035 16.495,-2.502 25.264,-4.396c6.198,-1.432 12.54,-2.68 18.832,-3.705c5.382,-0.873 10.63,-0.974 15.596,-0.298c4.542,0.618 8.608,2.059 12.429,4.398c3.443,2.114 6.624,5.699 9.453,10.659c2.342,4.104 3.74,8.319 4.273,12.874c0.524,4.534 0.175,8.76 -1.072,12.916c-1.298,4.31 -3.398,8.394 -6.255,12.149c-2.733,3.602 -6.024,6.486 -10.217,8.908c-0.002,0.001 -67.04,38.25 -67.04,38.25l6.168,10.813c4.393,7.697 11.518,13.222 20.066,15.56c8.548,2.338 17.494,1.204 25.191,-3.187l38.619,-22.039c9.518,-5.496 17.657,-12.54 24.194,-20.947c6.567,-8.445 11.403,-17.721 14.37,-27.576c2.992,-9.942 3.988,-20.368 2.957,-31c-1.049,-10.767 -4.416,-21.193 -10.007,-30.99c-5.16,-9.043 -11.392,-16.595 -18.531,-22.453c-7.186,-5.894 -15.214,-10.273 -23.862,-13.012c-8.343,-2.643 -17.24,-3.982 -26.453,-3.977c-8.838,0.01 -18,1.165 -27.231,3.438c-6.025,1.27 -12.458,2.711 -19.131,4.281c-5.606,1.327 -11.118,2 -16.392,2.006c-4.448,0.012 -8.487,-0.843 -12.345,-2.612c-3.028,-1.387 -5.863,-4.369 -8.425,-8.861c-2.075,-3.635 -3.242,-7.151 -3.568,-10.735c-0.342,-3.776 0.015,-7.322 1.084,-10.842" style="fill:#ff3887;fill-rule:nonzero;"/></g></svg>